<?xml version="1.0" standalone="no"?>
<!DOCTYPE svg PUBLIC "-//W3C//DTD SVG 20010904//EN"
 "http://www.w3.org/TR/2001/REC-SVG-20010904/DTD/svg10.dtd">
<svg version="1.0" xmlns="http://www.w3.org/2000/svg"
 width="95.000000pt" height="95.000000pt" viewBox="0 0 95.000000 95.000000"
 preserveAspectRatio="xMidYMid meet">

<g transform="translate(0.000000,95.000000) scale(0.100000,-0.100000)"
fill="#000000" stroke="none">
<path d="M243 833 c-7 -2 -13 -16 -13 -30 0 -22 -3 -24 -30 -18 -34 7 -44 -13
-10 -22 28 -7 25 -20 -10 -38 -29 -15 -40 -35 -20 -35 6 0 22 7 35 16 30 20
30 18 5 -37 -18 -39 -20 -66 -20 -261 l0 -217 26 -20 c26 -21 64 -28 64 -13 0
4 -15 14 -33 22 l-32 15 -3 208 c-2 171 0 212 13 237 15 30 16 30 105 30 l89
0 16 -30 c11 -22 15 -52 13 -101 l-3 -70 -55 -19 c-29 -10 -60 -26 -67 -36
-14 -19 -19 -207 -7 -239 26 -68 322 -92 448 -36 l46 20 0 122 c0 110 -2 125
-21 145 -20 21 -20 23 -3 105 9 46 17 106 18 134 1 46 -1 51 -29 64 -20 10
-63 15 -130 15 -111 0 -160 -15 -160 -49 0 -34 63 -48 193 -42 89 3 112 2 112
-9 0 -23 -79 -37 -182 -31 -54 3 -98 1 -98 -3 0 -15 67 -23 166 -18 l96 4 -7
-31 c-3 -16 -8 -49 -12 -72 -5 -36 -11 -44 -41 -59 -42 -20 -99 -9 -94 19 2
15 -7 17 -71 17 l-73 0 -2 76 c-1 58 -7 89 -27 132 -20 42 -24 66 -20 93 9 54
-11 69 -93 68 -37 0 -73 -3 -79 -6z m147 -48 c0 -24 -2 -25 -70 -25 -68 0 -70
1 -70 25 0 24 2 25 70 25 68 0 70 -1 70 -25z m-10 -49 c0 -2 3 -11 6 -20 5
-14 -5 -16 -70 -16 -74 0 -76 1 -66 20 9 17 21 20 70 20 33 0 60 -2 60 -4z
m354 -27 c36 -10 38 -12 20 -22 -39 -23 -272 -11 -248 13 21 20 168 26 228 9z
m-154 -274 c0 -24 73 -40 120 -26 29 9 45 9 61 1 23 -13 21 -35 -4 -35 -9 0
-22 -8 -29 -17 -9 -11 -39 -20 -91 -27 -113 -16 -127 -15 -127 9 0 37 -79 54
-135 28 -20 -9 -28 -9 -38 1 -16 16 4 47 28 43 10 -2 21 2 25 9 17 27 190 40
190 14z m-105 -84 c3 -5 1 -12 -4 -15 -13 -9 -72 5 -65 15 7 12 61 11 69 0z
m-94 -28 c62 -24 286 -24 348 0 24 9 45 17 48 17 2 0 3 -37 1 -82 l-3 -83 -40
-20 c-56 -28 -286 -29 -357 -2 l-48 19 0 84 c0 46 2 84 4 84 2 0 23 -8 47 -17z"/>
<path d="M500 420 c0 -5 5 -10 10 -10 6 0 10 5 10 10 0 6 -4 10 -10 10 -5 0
-10 -4 -10 -10z"/>
<path d="M580 360 c0 -5 5 -10 10 -10 6 0 10 5 10 10 0 6 -4 10 -10 10 -5 0
-10 -4 -10 -10z"/>
<path d="M416 261 c-3 -5 1 -14 8 -20 16 -13 32 2 21 19 -8 12 -22 13 -29 1z"/>
<path d="M690 240 c0 -13 7 -20 20 -20 13 0 20 7 20 20 0 13 -7 20 -20 20 -13
0 -20 -7 -20 -20z"/>
<path d="M487 183 c-14 -13 -6 -33 13 -33 13 0 20 7 20 20 0 19 -20 27 -33 13z"/>
<path d="M377 573 c7 -96 25 -107 21 -14 -2 44 -8 76 -14 78 -8 3 -10 -16 -7
-64z"/>
</g>
</svg>
